<svg xmlns="http://www.w3.org/2000/svg" width="480" height="480" viewBox="0 0 480 480">
  <g fill="none" fill-rule="evenodd" stroke="#000">
    <g transform="matrix(1 0 0 -1 54 474)">
      <path stroke-width="5" d="M312 295c32.913 0 60-27.087 60-60 0-19.546-8.997-36.824-22.922-47.955L179.573 16.582C172.873 6.527 161.6 0 149 0c-21.21 0-38 16.79-38 38 0 7.322 2.204 14.195 6.023 19.984L261 268c10.908 16.208 29.594 27 51 27z"/>
      <path stroke-width="5" d="M9.928 113.152C3.968 116.858 0 123.465 0 131c0 11.598 9.402 21 21 21 5.073 0 9.725-1.8 13.355-4.793l127.26-74.47C175.746 67.5 186 53.794 186 38c0-21.21-16.79-38-37-38-9.582 0-18.26 3.426-24.898 9.14L124 9 9.928 113.152zM69.076 201.656C64.376 203.282 61 207.746 61 213c0 6.627 5.373 12 12 12 2.695 0 5.183-.89 7.186-2.39l48.05-30.822.155-.1.072-.045c2.134-1.438 3.538-3.877 3.538-6.643 0-4.418-3.582-8-8-8-1.54 0-2.978.435-4.2 1.19l-50.724 23.466z"/>
      <path stroke-width="5" d="M63.18 219.898C65.35 222.984 68.94 225 73 225c6.627 0 12-5.373 12-12 0-1.77-.383-3.448-1.07-4.96L84 208l-44-86-.016.01C36.614 114.91 29.38 110 21 110c-11.598 0-21 9.402-21 21 0 5.867 2.406 11.172 6.286 14.983L63 220l.18-.102z"/>
      <circle cx="311.5" cy="234.5" r="13.5" stroke-width="5"/>
      <circle cx="148.5" cy="37.5" r="7.5" stroke-width="4"/>
      <circle cx="20.5" cy="130.5" r="4.5" stroke-width="3"/>
      <circle cx="73" cy="213" r="3" stroke-width="2"/>
    </g>
    <g transform="translate(54 5)">
      <path stroke-width="5" d="M312 295c32.913 0 60-27.087 60-60 0-19.546-8.997-36.824-22.922-47.955L179.573 16.582C172.873 6.527 161.6 0 149 0c-21.21 0-38 16.79-38 38 0 7.322 2.204 14.195 6.023 19.984L261 268c10.908 16.208 29.594 27 51 27z"/>
      <path stroke-width="5" d="M9.928 113.152C3.968 116.858 0 123.465 0 131c0 11.598 9.402 21 21 21 5.073 0 9.725-1.8 13.355-4.793l127.26-74.47C175.746 67.5 186 53.794 186 38c0-21.21-16.79-38-37-38-9.582 0-18.26 3.426-24.898 9.14L124 9 9.928 113.152zM69.076 201.656C64.376 203.282 61 207.746 61 213c0 6.627 5.373 12 12 12 2.695 0 5.183-.89 7.186-2.39l48.05-30.822.155-.1.072-.045c2.134-1.438 3.538-3.877 3.538-6.643 0-4.418-3.582-8-8-8-1.54 0-2.978.435-4.2 1.19l-50.724 23.466z"/>
      <path stroke-width="5" d="M63.18 219.898C65.35 222.984 68.94 225 73 225c6.627 0 12-5.373 12-12 0-1.77-.383-3.448-1.07-4.96L84 208l-44-86-.016.01C36.614 114.91 29.38 110 21 110c-11.598 0-21 9.402-21 21 0 5.867 2.406 11.172 6.286 14.983L63 220l.18-.102z"/>
      <circle cx="311.5" cy="234.5" r="13.5" stroke-width="5"/>
      <circle cx="148.5" cy="37.5" r="7.5" stroke-width="4"/>
      <circle cx="20.5" cy="130.5" r="4.5" stroke-width="3"/>
      <circle cx="73" cy="213" r="3" stroke-width="2"/>
    </g>
  </g>
</svg>
